# xmcd
#
# Track frame offsets:
#	150
#	11025
#	22385
#	35690
#	47950
#	65030
#	78387
#	90552
#	103592
#	118640
#	134897
#	151952
#	168285
#	183065
#	194977
#	207712
#
# Disc length: 2953 seconds
#
# Revision: 1
# Processed by: cddbd v1.5.2PL0 Copyright (c) Steve Scherf et al.
# Submitted via: audiograbber 1.83.01
#
DISCID=f10b8710
DTITLE=Various Artist - Chansons des Routiers Américains Vol2 CD1
DYEAR=1900
DGENRE=Country
TTITLE0=Jimmy Nail - Go West
TTITLE1=John William Roberts - River's Love
TTITLE2=Yvonne Thompson - Georgia Pines Are Calling
TTITLE3=Jimmy Nail - My Heart In Idaho
TTITLE4=Lee Makley - Jessie's Dreaming
TTITLE5=Helt Oncale - Sing For Me Seniorita
TTITLE6=John William Roberts - Make Your Play
TTITLE7=Lee Makley - Always Too Late
TTITLE8=Jimmy Nail - When I Was Young
TTITLE9=Helt Oncale - Happy Days
TTITLE10=Lee Makley - Lady (Don't You Steel My Heart
TTITLE11=John William Roberts - Doing Time
TTITLE12=Jimmy Nail - Big Rig
TTITLE13=Lee Makley - Dixie Lady
TTITLE14=Helt Oncale - Rocky Mountain Memories
TTITLE15=John William Roberts - Second Home
EXTD=BRIDGE 100.555-2
EXTT0=
EXTT1=
EXTT2=
EXTT3=
EXTT4=
EXTT5=
EXTT6=
EXTT7=
EXTT8=
EXTT9=
EXTT10=
EXTT11=
EXTT12=
EXTT13=
EXTT14=
EXTT15=
PLAYORDER=
